<mxfile host="app.diagrams.net" modified="2023-12-14T12:25:22.829Z" agent="Mozilla/5.0 (Windows NT 10.0; Win64; x64) AppleWebKit/537.36 (KHTML, like Gecko) Chrome/120.0.0.0 Safari/537.36 Edg/120.0.0.0" etag="j0WnlNp6Y5q1IRS8bS1S" version="22.1.8" type="google">
  <diagram name="Страница — 1" id="I8rudBIebCeIUXexh0yD">
    <mxGraphModel grid="1" page="1" gridSize="10" guides="1" tooltips="1" connect="1" arrows="1" fold="1" pageScale="1" pageWidth="827" pageHeight="1169" math="0" shadow="0">
      <root>
        <mxCell id="0" />
        <mxCell id="1" parent="0" />
        <mxCell id="w3ohouU-Qo8whWhfzl-h-1" style="edgeStyle=orthogonalEdgeStyle;rounded=0;orthogonalLoop=1;jettySize=auto;html=1;entryX=0;entryY=0.5;entryDx=0;entryDy=0;" edge="1" parent="1" source="w3ohouU-Qo8whWhfzl-h-3" target="w3ohouU-Qo8whWhfzl-h-10">
          <mxGeometry relative="1" as="geometry">
            <Array as="points">
              <mxPoint x="280" y="130" />
              <mxPoint x="280" y="160" />
            </Array>
          </mxGeometry>
        </mxCell>
        <mxCell id="w3ohouU-Qo8whWhfzl-h-2" value="Заказ" style="edgeLabel;html=1;align=center;verticalAlign=middle;resizable=0;points=[];" connectable="0" vertex="1" parent="w3ohouU-Qo8whWhfzl-h-1">
          <mxGeometry x="-0.3361" y="-2" relative="1" as="geometry">
            <mxPoint x="2" y="-12" as="offset" />
          </mxGeometry>
        </mxCell>
        <mxCell id="w3ohouU-Qo8whWhfzl-h-3" value="&lt;br&gt;Оформление&lt;br&gt;заказа&amp;nbsp;&lt;br&gt;&amp;nbsp; &amp;nbsp; &amp;nbsp; &amp;nbsp; &amp;nbsp; &amp;nbsp; &amp;nbsp; &amp;nbsp; &amp;nbsp; &amp;nbsp; &amp;nbsp; &amp;nbsp; &amp;nbsp; &amp;nbsp;А0" style="html=1;whiteSpace=wrap;" vertex="1" parent="1">
          <mxGeometry x="117.69" y="100" width="120" height="60" as="geometry" />
        </mxCell>
        <mxCell id="w3ohouU-Qo8whWhfzl-h-4" value="" style="endArrow=classic;html=1;rounded=0;entryX=0.5;entryY=0;entryDx=0;entryDy=0;strokeWidth=0.5;" edge="1" parent="1" target="w3ohouU-Qo8whWhfzl-h-3">
          <mxGeometry width="50" height="50" relative="1" as="geometry">
            <mxPoint x="177.69" y="40" as="sourcePoint" />
            <mxPoint x="137.69" y="230" as="targetPoint" />
            <Array as="points">
              <mxPoint x="177.69" y="70" />
            </Array>
          </mxGeometry>
        </mxCell>
        <mxCell id="w3ohouU-Qo8whWhfzl-h-5" value="Менеджер" style="edgeLabel;html=1;align=center;verticalAlign=middle;resizable=0;points=[];" connectable="0" vertex="1" parent="w3ohouU-Qo8whWhfzl-h-4">
          <mxGeometry x="0.0134" y="1" relative="1" as="geometry">
            <mxPoint x="-37" y="-20" as="offset" />
          </mxGeometry>
        </mxCell>
        <mxCell id="w3ohouU-Qo8whWhfzl-h-6" value="" style="endArrow=classic;html=1;rounded=0;" edge="1" parent="1">
          <mxGeometry width="50" height="50" relative="1" as="geometry">
            <mxPoint x="177.69" y="290" as="sourcePoint" />
            <mxPoint x="177.69" y="160" as="targetPoint" />
          </mxGeometry>
        </mxCell>
        <mxCell id="w3ohouU-Qo8whWhfzl-h-7" value="Проверка наличия&lt;br&gt;товара" style="edgeLabel;html=1;align=center;verticalAlign=middle;resizable=0;points=[];" connectable="0" vertex="1" parent="w3ohouU-Qo8whWhfzl-h-6">
          <mxGeometry x="-0.2111" y="1" relative="1" as="geometry">
            <mxPoint x="59" y="-10" as="offset" />
          </mxGeometry>
        </mxCell>
        <mxCell id="w3ohouU-Qo8whWhfzl-h-8" style="edgeStyle=orthogonalEdgeStyle;rounded=0;orthogonalLoop=1;jettySize=auto;html=1;entryX=0;entryY=0.5;entryDx=0;entryDy=0;" edge="1" parent="1" source="w3ohouU-Qo8whWhfzl-h-10" target="w3ohouU-Qo8whWhfzl-h-15">
          <mxGeometry relative="1" as="geometry">
            <Array as="points">
              <mxPoint x="470" y="160" />
              <mxPoint x="470" y="230" />
            </Array>
          </mxGeometry>
        </mxCell>
        <mxCell id="w3ohouU-Qo8whWhfzl-h-9" value="Счет" style="edgeLabel;html=1;align=center;verticalAlign=middle;resizable=0;points=[];" connectable="0" vertex="1" parent="w3ohouU-Qo8whWhfzl-h-8">
          <mxGeometry x="-0.5808" y="1" relative="1" as="geometry">
            <mxPoint x="5" y="-23" as="offset" />
          </mxGeometry>
        </mxCell>
        <mxCell id="w3ohouU-Qo8whWhfzl-h-10" value="&lt;br&gt;Оформление&lt;br&gt;счета&amp;nbsp;&lt;br&gt;&amp;nbsp; &amp;nbsp; &amp;nbsp; &amp;nbsp; &amp;nbsp; &amp;nbsp; &amp;nbsp; &amp;nbsp; &amp;nbsp; &amp;nbsp; &amp;nbsp; &amp;nbsp; &amp;nbsp; &amp;nbsp;А1" style="html=1;whiteSpace=wrap;" vertex="1" parent="1">
          <mxGeometry x="327.69" y="130" width="120" height="60" as="geometry" />
        </mxCell>
        <mxCell id="w3ohouU-Qo8whWhfzl-h-11" value="" style="endArrow=classic;html=1;rounded=0;" edge="1" parent="1">
          <mxGeometry width="50" height="50" relative="1" as="geometry">
            <mxPoint x="387.19000000000005" y="50" as="sourcePoint" />
            <mxPoint x="387.52" y="130" as="targetPoint" />
          </mxGeometry>
        </mxCell>
        <mxCell id="w3ohouU-Qo8whWhfzl-h-12" value="Менеджер" style="edgeLabel;html=1;align=center;verticalAlign=middle;resizable=0;points=[];" connectable="0" vertex="1" parent="w3ohouU-Qo8whWhfzl-h-11">
          <mxGeometry x="-0.3067" y="2" relative="1" as="geometry">
            <mxPoint x="-38" y="-18" as="offset" />
          </mxGeometry>
        </mxCell>
        <mxCell id="w3ohouU-Qo8whWhfzl-h-13" style="edgeStyle=orthogonalEdgeStyle;rounded=0;orthogonalLoop=1;jettySize=auto;html=1;entryX=0;entryY=0.5;entryDx=0;entryDy=0;" edge="1" parent="1" source="w3ohouU-Qo8whWhfzl-h-15" target="w3ohouU-Qo8whWhfzl-h-23">
          <mxGeometry relative="1" as="geometry" />
        </mxCell>
        <mxCell id="w3ohouU-Qo8whWhfzl-h-14" value="Накладная" style="edgeLabel;html=1;align=center;verticalAlign=middle;resizable=0;points=[];" connectable="0" vertex="1" parent="w3ohouU-Qo8whWhfzl-h-13">
          <mxGeometry x="-0.5556" y="3" relative="1" as="geometry">
            <mxPoint x="16" y="-7" as="offset" />
          </mxGeometry>
        </mxCell>
        <mxCell id="w3ohouU-Qo8whWhfzl-h-15" value="&lt;br&gt;Оформление&lt;br&gt;накладных&amp;nbsp;&lt;br&gt;&amp;nbsp; &amp;nbsp; &amp;nbsp; &amp;nbsp; &amp;nbsp; &amp;nbsp; &amp;nbsp; &amp;nbsp; &amp;nbsp; &amp;nbsp; &amp;nbsp; &amp;nbsp; &amp;nbsp; &amp;nbsp;А2" style="html=1;whiteSpace=wrap;" vertex="1" parent="1">
          <mxGeometry x="487.69000000000005" y="200" width="120" height="60" as="geometry" />
        </mxCell>
        <mxCell id="w3ohouU-Qo8whWhfzl-h-16" value="Клиент" style="edgeLabel;html=1;align=center;verticalAlign=middle;resizable=0;points=[];" connectable="0" vertex="1" parent="1">
          <mxGeometry x="69.99769230769238" y="137" as="geometry" />
        </mxCell>
        <mxCell id="w3ohouU-Qo8whWhfzl-h-17" value="" style="endArrow=classic;html=1;rounded=0;" edge="1" parent="1">
          <mxGeometry width="50" height="50" relative="1" as="geometry">
            <mxPoint x="567.69" y="90" as="sourcePoint" />
            <mxPoint x="567.69" y="200" as="targetPoint" />
          </mxGeometry>
        </mxCell>
        <mxCell id="w3ohouU-Qo8whWhfzl-h-18" value="Бухгалтер" style="edgeLabel;html=1;align=center;verticalAlign=middle;resizable=0;points=[];" connectable="0" vertex="1" parent="w3ohouU-Qo8whWhfzl-h-17">
          <mxGeometry x="-0.3067" y="2" relative="1" as="geometry">
            <mxPoint x="-38" as="offset" />
          </mxGeometry>
        </mxCell>
        <mxCell id="w3ohouU-Qo8whWhfzl-h-19" value="" style="endArrow=classic;html=1;rounded=0;entryX=0.5;entryY=1;entryDx=0;entryDy=0;" edge="1" parent="1" target="w3ohouU-Qo8whWhfzl-h-15">
          <mxGeometry width="50" height="50" relative="1" as="geometry">
            <mxPoint x="547.69" y="350" as="sourcePoint" />
            <mxPoint x="617.69" y="420" as="targetPoint" />
          </mxGeometry>
        </mxCell>
        <mxCell id="w3ohouU-Qo8whWhfzl-h-20" value="Оплата&lt;br&gt;клиентом" style="edgeLabel;html=1;align=center;verticalAlign=middle;resizable=0;points=[];" connectable="0" vertex="1" parent="w3ohouU-Qo8whWhfzl-h-19">
          <mxGeometry x="-0.1626" relative="1" as="geometry">
            <mxPoint x="33" y="1" as="offset" />
          </mxGeometry>
        </mxCell>
        <mxCell id="w3ohouU-Qo8whWhfzl-h-21" style="edgeStyle=orthogonalEdgeStyle;rounded=0;orthogonalLoop=1;jettySize=auto;html=1;" edge="1" parent="1" source="w3ohouU-Qo8whWhfzl-h-23">
          <mxGeometry relative="1" as="geometry">
            <mxPoint x="907.69" y="440" as="targetPoint" />
            <Array as="points">
              <mxPoint x="847.69" y="260" />
              <mxPoint x="847.69" y="370" />
              <mxPoint x="907.69" y="370" />
            </Array>
          </mxGeometry>
        </mxCell>
        <mxCell id="w3ohouU-Qo8whWhfzl-h-22" value="Товар" style="edgeLabel;html=1;align=center;verticalAlign=middle;resizable=0;points=[];" connectable="0" vertex="1" parent="w3ohouU-Qo8whWhfzl-h-21">
          <mxGeometry x="0.3653" relative="1" as="geometry">
            <mxPoint x="-20" y="-39" as="offset" />
          </mxGeometry>
        </mxCell>
        <mxCell id="w3ohouU-Qo8whWhfzl-h-23" value="&lt;br&gt;Выдача&lt;br&gt;товара&amp;nbsp;&lt;br&gt;&amp;nbsp; &amp;nbsp; &amp;nbsp; &amp;nbsp; &amp;nbsp; &amp;nbsp; &amp;nbsp; &amp;nbsp; &amp;nbsp; &amp;nbsp; &amp;nbsp; &amp;nbsp; &amp;nbsp; &amp;nbsp;А3" style="html=1;whiteSpace=wrap;" vertex="1" parent="1">
          <mxGeometry x="717.69" y="230" width="120" height="60" as="geometry" />
        </mxCell>
        <mxCell id="w3ohouU-Qo8whWhfzl-h-24" value="" style="endArrow=classic;html=1;rounded=0;" edge="1" parent="1">
          <mxGeometry width="50" height="50" relative="1" as="geometry">
            <mxPoint x="777.19" y="160" as="sourcePoint" />
            <mxPoint x="777.19" y="230" as="targetPoint" />
          </mxGeometry>
        </mxCell>
        <mxCell id="w3ohouU-Qo8whWhfzl-h-25" value="Кладовщик" style="edgeLabel;html=1;align=center;verticalAlign=middle;resizable=0;points=[];" connectable="0" vertex="1" parent="w3ohouU-Qo8whWhfzl-h-24">
          <mxGeometry x="-0.4778" y="-1" relative="1" as="geometry">
            <mxPoint x="-41" as="offset" />
          </mxGeometry>
        </mxCell>
        <mxCell id="w3ohouU-Qo8whWhfzl-h-26" value="" style="endArrow=classic;html=1;rounded=0;entryX=0.5;entryY=1;entryDx=0;entryDy=0;" edge="1" parent="1" target="w3ohouU-Qo8whWhfzl-h-10">
          <mxGeometry width="50" height="50" relative="1" as="geometry">
            <mxPoint x="387.69" y="380" as="sourcePoint" />
            <mxPoint x="387.02" y="400" as="targetPoint" />
          </mxGeometry>
        </mxCell>
        <mxCell id="w3ohouU-Qo8whWhfzl-h-27" value="Информационная система" style="edgeLabel;html=1;align=center;verticalAlign=middle;resizable=0;points=[];rotation=-90;" connectable="0" vertex="1" parent="w3ohouU-Qo8whWhfzl-h-26">
          <mxGeometry x="-0.2341" relative="1" as="geometry">
            <mxPoint x="-20" y="9" as="offset" />
          </mxGeometry>
        </mxCell>
        <mxCell id="w3ohouU-Qo8whWhfzl-h-28" value="" style="endArrow=classic;html=1;rounded=0;" edge="1" parent="1">
          <mxGeometry width="50" height="50" relative="1" as="geometry">
            <mxPoint x="787.69" y="420" as="sourcePoint" />
            <mxPoint x="787.69" y="290" as="targetPoint" />
          </mxGeometry>
        </mxCell>
        <mxCell id="w3ohouU-Qo8whWhfzl-h-29" value="Информационная система" style="edgeLabel;html=1;align=center;verticalAlign=middle;resizable=0;points=[];rotation=-90;" connectable="0" vertex="1" parent="w3ohouU-Qo8whWhfzl-h-28">
          <mxGeometry x="-0.2341" relative="1" as="geometry">
            <mxPoint x="-20" y="9" as="offset" />
          </mxGeometry>
        </mxCell>
      </root>
    </mxGraphModel>
  </diagram>
</mxfile>
